<svg xmlns="http://www.w3.org/2000/svg" xmlns:xlink="http://www.w3.org/1999/xlink" width="500" zoomAndPan="magnify" viewBox="0 0 375 374.999991" height="500" preserveAspectRatio="xMidYMid meet" version="1.0"><defs><clipPath id="d315e4aa45"><path d="M 187.5 0 C 83.945312 0 0 83.945312 0 187.5 C 0 291.054688 83.945312 375 187.5 375 C 291.054688 375 375 291.054688 375 187.5 C 375 83.945312 291.054688 0 187.5 0 Z M 187.5 0 " clip-rule="nonzero"/></clipPath><clipPath id="2faf9fbe3a"><path d="M 139 147 L 294.804688 147 L 294.804688 272 L 139 272 Z M 139 147 " clip-rule="nonzero"/></clipPath><clipPath id="49d61e3e78"><path d="M 80.304688 187 L 131 187 L 131 308 L 80.304688 308 Z M 80.304688 187 " clip-rule="nonzero"/></clipPath><clipPath id="11bf0e3641"><path d="M 132 29.570312 L 209 29.570312 L 209 129 L 132 129 Z M 132 29.570312 " clip-rule="nonzero"/></clipPath><clipPath id="b86bd91d0b"><path d="M 104 114 L 184 114 L 184 345.320312 L 104 345.320312 Z M 104 114 " clip-rule="nonzero"/></clipPath></defs><g clip-path="url(#d315e4aa45)"><rect x="-37.5" width="450" fill="#ffffff" y="-37.499999" height="449.999989" fill-opacity="1"/></g><path fill="#048100" d="M 263.453125 34.957031 C 262.492188 36.28125 262.238281 38.820312 261.53125 40.371094 C 260.8125 41.964844 259.953125 43.492188 258.964844 44.917969 C 257.222656 47.46875 255.0625 49.691406 252.722656 51.699219 C 247.972656 55.800781 242.765625 59.617188 239.074219 64.765625 C 233.742188 72.191406 234.371094 81.15625 235.902344 89.679688 C 235.953125 89.984375 236.003906 90.285156 236.066406 90.589844 C 236.773438 94.464844 237.671875 98.316406 238.71875 102.117188 C 239.378906 104.554688 240.097656 106.964844 240.855469 109.378906 C 240.933594 109.617188 241.007812 109.855469 241.082031 110.085938 C 241.171875 110.347656 241.261719 110.613281 241.347656 110.890625 C 242.335938 113.933594 243.394531 116.914062 244.191406 119.957031 C 244.9375 122.800781 245.457031 125.691406 245.492188 128.722656 L 245.492188 129.136719 C 245.492188 131.574219 245.179688 134 244.546875 136.347656 C 244.191406 137.636719 243.761719 138.910156 243.257812 140.148438 C 242.105469 142.949219 240.601562 145.617188 238.882812 148.117188 C 233.199219 156.421875 225.25 162.953125 216.085938 167.105469 C 215.277344 167.472656 214.480469 167.839844 213.699219 168.21875 C 210.691406 169.644531 207.832031 171.109375 205.117188 172.636719 C 200.492188 175.238281 196.28125 177.964844 192.453125 180.804688 C 188.75 183.558594 185.390625 186.425781 182.34375 189.390625 C 179.425781 192.234375 176.796875 195.148438 174.417969 198.15625 C 172.132812 201.035156 170.070312 203.976562 168.226562 206.992188 C 138.972656 238.292969 154.957031 289.269531 109.523438 344.8125 C 108.324219 343.929688 107.125 343.03125 105.9375 342.160156 C 137.050781 300.164062 156.601562 231.335938 133.070312 188.015625 C 132.449219 186.171875 131.816406 184.316406 131.222656 182.460938 C 129.667969 177.6875 128.203125 172.890625 127.15625 167.964844 C 126.179688 163.417969 125.386719 158.785156 124.855469 154.113281 C 123.617188 143.429688 123.769531 132.570312 126.382812 122.140625 C 127.078125 119.402344 127.949219 116.726562 129 114.136719 C 130.464844 110.527344 132.273438 107.105469 134.421875 103.871094 C 134.421875 103.871094 134.421875 103.871094 134.421875 103.859375 C 137.847656 98.683594 142.105469 94.035156 147.109375 90.121094 C 149.828125 87.988281 152.683594 86.09375 155.664062 84.375 C 158.042969 83.011719 160.480469 81.789062 162.984375 80.675781 C 167.542969 78.632812 172.285156 76.953125 177.113281 75.574219 C 179.335938 74.945312 181.585938 74.375 183.835938 73.84375 C 185.96875 73.351562 188.132812 72.910156 190.265625 72.507812 C 194.347656 71.75 198.480469 71.359375 202.578125 70.664062 C 206.695312 69.96875 210.664062 69.109375 214.480469 68.074219 C 219.574219 66.699219 224.402344 65.007812 228.953125 63 C 242.828125 56.835938 254.265625 47.65625 263.453125 34.957031 Z M 263.453125 34.957031 " fill-opacity="1" fill-rule="nonzero"/><path fill="#048100" d="M 241.691406 74.96875 C 239.667969 80.890625 239.378906 87.140625 239.125 93.277344 C 238.871094 99.226562 238.820312 105.222656 237.53125 111.003906 C 237.53125 111.003906 240.300781 111.699219 240.300781 111.699219 C 243.546875 99.804688 240.933594 87.53125 244.28125 75.828125 C 248.035156 62.921875 260.582031 60.109375 272.476562 59.148438 C 259.546875 58.542969 246.351562 61.292969 241.691406 74.96875 Z M 241.691406 74.96875 " fill-opacity="1" fill-rule="nonzero"/><path fill="#048100" d="M 240.136719 121.6875 C 239.945312 124.476562 239.792969 127.257812 239.730469 130.035156 L 243.941406 130.109375 C 243.964844 127.371094 244.003906 124.640625 244.117188 121.914062 C 244.671875 103.050781 248.324219 82.054688 267.472656 73.492188 C 246.910156 80.285156 241.4375 102.371094 240.136719 121.6875 Z M 240.136719 121.6875 " fill-opacity="1" fill-rule="nonzero"/><path fill="#048100" d="M 240.023438 133.910156 C 239.1875 135.765625 238.0625 137.496094 236.230469 138.242188 C 236.230469 138.242188 237.59375 141.839844 237.59375 141.839844 C 240.476562 140.753906 242.359375 138.066406 243.460938 135.4375 C 245.40625 130.628906 246.152344 125.777344 247.441406 120.890625 C 250.449219 108.339844 256.476562 98.554688 268.46875 92.835938 C 258.410156 96.195312 251.257812 103.265625 247.046875 112.925781 C 243.941406 119.71875 242.839844 127.207031 240.023438 133.910156 Z M 240.023438 133.910156 " fill-opacity="1" fill-rule="nonzero"/><path fill="#048100" d="M 200.808594 169.996094 L 200.882812 172.800781 C 204.863281 172.773438 208.832031 172.320312 212.75 171.5625 C 239.871094 166.410156 263.640625 141.964844 263.464844 113.683594 C 261.164062 140.804688 238.328125 163.28125 212.128906 168.53125 C 208.402344 169.339844 204.609375 169.796875 200.808594 169.996094 Z M 200.808594 169.996094 " fill-opacity="1" fill-rule="nonzero"/><path fill="#048100" d="M 204.546875 181.601562 C 239.074219 172.445312 267.140625 163.9375 275.140625 124.527344 C 269.480469 147.332031 256.550781 161.601562 234.386719 169.453125 C 214.304688 177.003906 191.695312 177.953125 172.816406 189 C 172.816406 189 175.441406 193.167969 175.441406 193.167969 C 184.226562 187.546875 194.5 184.46875 204.546875 181.601562 Z M 204.546875 181.601562 " fill-opacity="1" fill-rule="nonzero"/><g clip-path="url(#2faf9fbe3a)"><path fill="#048100" d="M 257.640625 190.945312 C 259.507812 188.320312 261.328125 185.527344 263.085938 182.574219 C 261.140625 185.488281 259.078125 188.304688 256.90625 191.007812 C 252.292969 191.386719 247.617188 191.375 242.902344 191.171875 C 258.054688 184.46875 270.011719 172.800781 275.105469 147.207031 C 268.582031 174.542969 254.898438 185.238281 237.9375 190.894531 C 215.0625 189.40625 191.125 185.1875 166.496094 200.78125 C 160.933594 204.265625 155.84375 208.445312 151.140625 213.003906 L 154.300781 216.183594 C 156.523438 213.976562 158.8125 211.839844 161.214844 209.835938 C 184.503906 190.085938 208.351562 191.742188 231.328125 192.824219 C 213.191406 197.496094 192.136719 198.457031 172.308594 208.089844 C 163.550781 212.433594 155.691406 218.558594 149.296875 225.945312 L 148.878906 226.425781 C 148.878906 226.425781 148.777344 226.539062 148.777344 226.539062 C 148.765625 226.5625 148.738281 226.578125 148.726562 226.601562 C 148.726562 226.628906 148.738281 226.679688 148.765625 226.742188 C 149.167969 227.386719 149.5625 227.726562 150.230469 228.433594 C 150.9375 228.9375 151.316406 229.253906 151.859375 229.558594 C 151.859375 229.558594 152.101562 229.671875 152.101562 229.671875 C 152.164062 229.695312 152.214844 229.695312 152.242188 229.695312 C 152.265625 229.683594 152.277344 229.65625 152.289062 229.644531 C 152.289062 229.644531 152.390625 229.53125 152.390625 229.53125 C 154.414062 227.320312 156.539062 225.1875 158.800781 223.230469 C 183.140625 201.296875 213.914062 201.929688 238.0625 193.105469 C 243.925781 193.292969 249.726562 193.320312 255.441406 192.777344 C 247.035156 202.777344 236.886719 210.957031 224.210938 215.503906 C 213.34375 219.519531 201.804688 220.707031 190.394531 222.5625 C 188.257812 222.878906 186.160156 223.230469 184.113281 223.648438 C 200.769531 210.214844 220.28125 200.742188 242.460938 196.992188 C 217.816406 199.972656 196.132812 210.1875 177.757812 225.164062 C 164.664062 228.785156 153.390625 235.277344 144.164062 246.691406 C 144.164062 246.691406 146.921875 248.964844 146.921875 248.964844 C 153.429688 241.121094 161.628906 234.796875 171.070312 230.972656 C 162.984375 238.40625 155.589844 246.792969 148.953125 255.882812 C 145.730469 260.253906 142.671875 264.734375 139.753906 269.304688 C 139.753906 269.304688 143.8125 271.804688 143.8125 271.804688 C 146.554688 267.246094 149.433594 262.765625 152.480469 258.394531 C 160.050781 247.273438 168.734375 237.15625 178.476562 228.433594 C 188.117188 225.65625 198.230469 224.507812 208.113281 222.472656 C 229.609375 218.257812 244.371094 208.734375 256.375 192.660156 C 269.808594 191.234375 282.726562 186.613281 294.804688 173.875 C 282.851562 185.539062 270.441406 189.78125 257.640625 190.945312 Z M 257.640625 190.945312 " fill-opacity="1" fill-rule="nonzero"/></g><path fill="#048100" d="M 140.789062 276.035156 L 136.328125 282.839844 C 136.328125 282.839844 139.742188 284.925781 139.742188 284.925781 C 142.242188 280.910156 145.847656 275.554688 148.664062 271.804688 C 172.132812 240.628906 204.726562 223.722656 242.714844 216.828125 C 200.820312 222.03125 165.054688 240.945312 140.789062 276.035156 Z M 140.789062 276.035156 " fill-opacity="1" fill-rule="nonzero"/><path fill="#048100" d="M 141.472656 286.820312 C 137.882812 290.796875 134.382812 294.847656 131.058594 299.042969 L 133.664062 301.136719 C 137.023438 297.058594 140.449219 293.03125 144.027344 289.128906 C 168.695312 262.019531 199.59375 237.878906 236.421875 231.023438 C 198.773438 235.667969 166.519531 259.609375 141.472656 286.820312 Z M 141.472656 286.820312 " fill-opacity="1" fill-rule="nonzero"/><path fill="#048100" d="M 132.917969 308.121094 C 129.605469 312.121094 126.445312 316.25 123.402344 320.441406 C 123.402344 320.441406 125.386719 321.921875 125.386719 321.921875 C 151.191406 287.941406 182.367188 263.433594 223.566406 250.871094 C 202.109375 255.859375 181.484375 265.164062 163.855469 278.445312 C 152.355469 286.957031 142.015625 297.121094 132.917969 308.121094 Z M 132.917969 308.121094 " fill-opacity="1" fill-rule="nonzero"/><path fill="#048100" d="M 94.019531 223.609375 C 117.410156 243.875 122.453125 279.027344 121.277344 308.398438 C 121.089844 312.765625 120.683594 317.121094 120.140625 321.453125 L 123.488281 321.921875 C 124.148438 317.488281 124.527344 313.019531 124.742188 308.550781 C 125.839844 279.027344 119.191406 242.207031 94.019531 223.609375 Z M 94.019531 223.609375 " fill-opacity="1" fill-rule="nonzero"/><g clip-path="url(#49d61e3e78)"><path fill="#048100" d="M 130.097656 295.265625 C 128.152344 253.246094 111.738281 216.097656 80.304688 187.824219 C 109.953125 217.5625 124.765625 253.625 126.207031 295.441406 C 126.421875 298.347656 126.347656 304.773438 126.382812 307.816406 C 126.382812 307.816406 130.390625 307.867188 130.390625 307.867188 C 130.3125 304.8125 130.363281 298.285156 130.097656 295.265625 Z M 130.097656 295.265625 " fill-opacity="1" fill-rule="nonzero"/></g><path fill="#048100" d="M 147.992188 246.414062 C 148.410156 240.429688 147.25 233.835938 144.9375 226.941406 C 144 224.113281 142.863281 221.234375 141.5625 218.320312 C 133.839844 200.996094 120.394531 182.511719 107.527344 167.066406 C 103.003906 146.789062 104.40625 126.347656 109.804688 105.058594 C 103.574219 125.234375 101.386719 144.316406 104.546875 163.53125 C 99.628906 157.761719 94.878906 152.496094 90.632812 147.976562 C 90.921875 142.230469 91.808594 136.007812 93.359375 129.085938 C 91.566406 135.679688 90.492188 141.699219 89.972656 147.269531 C 88.632812 145.84375 87.359375 144.492188 86.144531 143.242188 C 87.332031 144.617188 88.609375 146.109375 89.949219 147.6875 C 89.191406 156.511719 89.886719 164.203125 91.578125 171.246094 C 89.707031 169.316406 87.789062 167.394531 85.816406 165.515625 C 87.863281 167.675781 89.847656 169.871094 91.78125 172.105469 C 99.957031 204.242188 128.757812 222.941406 132.539062 273.964844 L 132.957031 279.394531 C 132.96875 279.8125 132.992188 280.402344 133.019531 281.085938 C 133.09375 283.246094 133.183594 286.300781 133.234375 287.574219 L 133.234375 287.839844 C 133.207031 289.796875 133.183594 292.550781 133.171875 294.40625 L 133.15625 295.089844 C 133.171875 295.242188 133.09375 295.339844 133.296875 295.441406 C 133.699219 295.65625 134.507812 295.757812 135.003906 295.859375 C 135.191406 295.832031 135.773438 295.796875 135.949219 295.769531 L 136.152344 295.734375 C 136.417969 295.683594 136.609375 295.632812 136.722656 295.582031 C 136.835938 295.53125 136.871094 295.46875 136.871094 295.417969 L 136.871094 295.242188 L 136.898438 294.546875 C 136.988281 291.527344 137.1875 287.804688 137.113281 284.785156 C 137.113281 284.292969 137.101562 283.800781 137.101562 283.308594 C 137.859375 283.257812 141.433594 283.003906 141.433594 283.003906 L 140.601562 274.710938 C 140.222656 271.488281 139.765625 268.320312 139.222656 265.164062 C 138.996094 263.789062 138.742188 262.425781 138.476562 261.058594 C 132.058594 227.914062 116.980469 198.546875 93.941406 173.746094 C 91.402344 165.957031 90.203125 157.851562 90.617188 148.496094 C 94.964844 153.644531 99.933594 159.730469 105.050781 166.386719 C 106.59375 174.429688 109.070312 182.496094 112.597656 190.691406 C 121.910156 211.855469 134.179688 231.929688 139.996094 254.152344 C 140.210938 254.988281 140.425781 255.820312 140.613281 256.667969 C 141.75 261.4375 142.574219 266.3125 143.003906 271.3125 L 145.226562 271.109375 C 144.695312 263.789062 143.382812 256.539062 141.460938 249.457031 C 141.359375 249.101562 141.257812 248.75 141.167969 248.382812 C 139.300781 241.691406 136.886719 235.136719 134.066406 228.800781 C 128.265625 215.464844 120.859375 202.914062 115.109375 189.617188 C 112.265625 183.355469 110.066406 177.09375 108.4375 170.832031 C 122.832031 190.046875 137.542969 213.066406 142.144531 232.109375 C 142.585938 233.9375 142.925781 235.730469 143.179688 237.472656 C 143.597656 240.441406 143.710938 243.28125 143.496094 245.972656 Z M 130.996094 245.300781 C 127.15625 233.585938 121.542969 222.410156 114.214844 211.109375 C 105.292969 197.585938 98.402344 186.640625 94.421875 175.1875 C 111.75 195.945312 124.171875 219.355469 130.996094 245.300781 Z M 130.996094 245.300781 " fill-opacity="1" fill-rule="nonzero"/><path fill="#048100" d="M 147.878906 215.011719 C 147.878906 215.011719 152.808594 210.871094 152.808594 210.871094 C 148.539062 206.046875 144.429688 201.082031 140.550781 195.957031 C 111.320312 157.699219 101.09375 114.792969 116.109375 68.316406 C 99.542969 114.957031 108.335938 158.886719 136.164062 199.089844 C 139.84375 204.554688 143.773438 209.859375 147.878906 215.011719 Z M 147.878906 215.011719 " fill-opacity="1" fill-rule="nonzero"/><path fill="#048100" d="M 129.441406 174.960938 C 131.335938 179.582031 133.585938 184.125 135.914062 188.558594 C 136.367188 189.164062 137.0625 189.125 138.035156 189 C 138.554688 188.484375 138.757812 188.117188 138.90625 187.789062 C 139.035156 187.472656 139.035156 187.21875 138.945312 187.019531 L 138.363281 185.804688 C 135.988281 181.007812 133.878906 176.03125 131.917969 171.058594 C 110.207031 115.527344 129.164062 72.496094 173.851562 36.371094 C 126.371094 70.839844 105.757812 118.871094 129.441406 174.960938 Z M 129.441406 174.960938 " fill-opacity="1" fill-rule="nonzero"/><g clip-path="url(#11bf0e3641)"><path fill="#048100" d="M 132.929688 111.914062 C 132.398438 117.507812 132.539062 123.152344 133.320312 128.695312 C 133.320312 128.695312 136.949219 128.203125 136.949219 128.203125 C 130.023438 81.710938 172.15625 50.171875 208.011719 29.613281 C 174.773438 46.535156 137.152344 71.585938 132.929688 111.914062 Z M 132.929688 111.914062 " fill-opacity="1" fill-rule="nonzero"/></g><path fill="#048100" d="M 159.796875 79.375 C 156.929688 82.683594 152.847656 87.683594 150.269531 91.105469 C 150.269531 91.105469 152.582031 92.886719 152.582031 92.886719 C 155.222656 89.578125 159.332031 84.652344 162.160156 81.484375 C 186.867188 53.820312 215.039062 38 252.34375 34.957031 C 214.671875 35.320312 184.480469 51.484375 159.796875 79.375 Z M 159.796875 79.375 " fill-opacity="1" fill-rule="nonzero"/><path fill="#048100" d="M 247.59375 41.371094 C 241.828125 50.75 232.804688 57.558594 223.492188 63.164062 C 216.730469 67.265625 208.605469 70.851562 201.261719 73.871094 C 198.671875 74.84375 196.082031 75.804688 193.503906 76.890625 C 198.988281 75.902344 204.410156 74.488281 209.679688 72.632812 C 220.179688 68.78125 230.316406 63.226562 238.277344 55.246094 C 242.132812 51.242188 245.796875 46.710938 247.59375 41.371094 Z M 247.59375 41.371094 " fill-opacity="1" fill-rule="nonzero"/><path fill="#048100" d="M 176.011719 76.738281 C 174.417969 78.605469 173.015625 80.625 171.675781 82.695312 C 171.675781 82.695312 174.761719 84.617188 174.761719 84.617188 C 176.441406 82.066406 178.234375 79.589844 180.308594 77.332031 C 194.992188 61.28125 217.804688 53.78125 238.910156 50.878906 C 216.476562 51.609375 190.976562 59.160156 176.011719 76.738281 Z M 176.011719 76.738281 " fill-opacity="1" fill-rule="nonzero"/><path fill="#fac113" d="M 152.457031 179.0625 C 111.535156 141.535156 136.859375 96.433594 201.3125 96.546875 C 231.515625 131.257812 202.03125 179.203125 155.414062 181.097656 Z M 152.457031 179.0625 " fill-opacity="1" fill-rule="nonzero"/><path fill="#164993" d="M 157.941406 163.558594 C 157.941406 163.558594 192.164062 170.894531 196.839844 143.242188 C 198.367188 118.835938 169.65625 111.296875 153.605469 122.257812 C 150.835938 124.148438 148.839844 126.953125 147.945312 130.1875 C 142.308594 150.566406 157.941406 163.558594 157.941406 163.558594 Z M 157.941406 163.558594 " fill-opacity="1" fill-rule="nonzero"/><path fill="#21991a" d="M 184.71875 171.804688 C 176.300781 175.109375 167.050781 176.902344 158.355469 178.292969 C 160.605469 178.054688 162.882812 177.875 165.132812 177.523438 C 170.714844 176.714844 176.402344 175.453125 181.773438 173.683594 C 200.328125 167.839844 216.996094 155.652344 227.472656 139.1875 C 231.78125 132.308594 236.925781 121.941406 236.800781 113.746094 L 236.6875 113.757812 C 236.722656 116.019531 236.167969 118.253906 235.546875 120.414062 C 233.589844 126.914062 230.492188 133.0625 226.753906 138.722656 C 216.769531 153.898438 201.667969 165.375 184.71875 171.804688 Z M 184.71875 171.804688 " fill-opacity="1" fill-rule="nonzero"/><path fill="#21991a" d="M 174.535156 167.558594 C 175.632812 167.257812 178.273438 166.550781 179.359375 166.234375 C 180.335938 165.90625 183.113281 164.933594 184.101562 164.59375 C 192.414062 161.359375 200.085938 156.421875 206.632812 150.375 C 219.433594 138.027344 228.027344 121.371094 230.871094 103.847656 C 226.183594 124.996094 214.203125 145.753906 195.5 157.710938 C 184.417969 165.023438 170.96875 168.445312 158.066406 169.617188 C 161.832031 169.480469 165.902344 169.113281 169.628906 168.53125 C 170.601562 168.367188 173.546875 167.738281 174.535156 167.558594 Z M 174.535156 167.558594 " fill-opacity="1" fill-rule="nonzero"/><path fill="#21991a" d="M 174.417969 157.371094 C 169.667969 158.316406 164.777344 158.519531 159.9375 158.179688 C 159.9375 158.179688 159.925781 158.292969 159.925781 158.292969 C 167.179688 159.113281 174.699219 158.496094 181.648438 156.121094 C 211.511719 146.03125 226.917969 108.667969 231.378906 79.792969 C 224.945312 110.425781 208.84375 150.375 174.417969 157.371094 Z M 174.417969 157.371094 " fill-opacity="1" fill-rule="nonzero"/><path fill="#21991a" d="M 199.910156 85.324219 C 186.148438 99.539062 174.320312 116.132812 168.011719 135.023438 C 166.75 138.785156 165.800781 142.648438 165.03125 146.535156 C 165.03125 146.535156 165.132812 146.5625 165.132812 146.5625 C 166.105469 142.773438 167.113281 139.023438 168.492188 135.386719 C 171.511719 133.886719 174.484375 132.292969 177.414062 130.613281 C 189.824219 123.40625 201.4375 114.464844 210.488281 103.226562 C 211.421875 102.066406 212.636719 100.375 213.570312 99.175781 C 214.898438 97.203125 216.492188 94.804688 217.652344 92.734375 C 220.242188 88.402344 222.292969 83.683594 223.960938 78.921875 C 213.535156 104.363281 192.199219 122.015625 168.542969 135.234375 C 168.542969 135.222656 168.554688 135.210938 168.554688 135.199219 C 178.097656 109.339844 197.042969 87.34375 217.691406 69.515625 C 211.410156 73.894531 205.457031 79.78125 199.910156 85.324219 Z M 199.910156 85.324219 " fill-opacity="1" fill-rule="nonzero"/><path fill="#21991a" d="M 161.300781 138.808594 C 161.480469 141.878906 161.921875 144.921875 162.640625 147.902344 L 162.742188 147.875 C 162.222656 144.84375 161.882812 141.828125 161.871094 138.785156 C 161.820312 118.050781 173.117188 96.890625 184.730469 80.234375 C 180.800781 84.566406 177.402344 90.160156 174.253906 95.3125 C 166.609375 108.480469 160.695312 123.367188 161.300781 138.808594 Z M 161.300781 138.808594 " fill-opacity="1" fill-rule="nonzero"/><path fill="#21991a" d="M 167.152344 130.070312 C 168.453125 124.691406 170.171875 119.300781 172.246094 114.175781 C 175.050781 107.34375 178.714844 100.804688 183.078125 94.855469 C 183.519531 94.199219 184.289062 93.304688 184.78125 92.671875 C 186.363281 90.613281 188.523438 88.316406 190.253906 86.382812 C 191.554688 85.070312 192.910156 83.78125 194.234375 82.480469 L 198.46875 78.859375 L 202.890625 75.4375 C 204.445312 74.402344 205.976562 73.339844 207.519531 72.253906 C 180.257812 87.21875 165.75 116.21875 164.207031 146.585938 C 164.953125 141.058594 165.851562 135.5 167.152344 130.070312 Z M 167.152344 130.070312 " fill-opacity="1" fill-rule="nonzero"/><path fill="#21991a" d="M 179.703125 136.699219 C 176.164062 138.140625 172.410156 139.0625 168.59375 139.238281 L 168.59375 139.351562 C 172.433594 139.390625 176.277344 138.542969 179.917969 137.230469 C 203.777344 128.0625 223.367188 101.019531 229.988281 76.9375 C 224.96875 91.09375 217.234375 104.945312 206.972656 116.246094 C 199.328125 124.691406 190.355469 132.355469 179.703125 136.699219 Z M 179.703125 136.699219 " fill-opacity="1" fill-rule="nonzero"/><path fill="#21991a" d="M 173.699219 152.410156 C 170.160156 153.847656 166.40625 154.769531 162.589844 154.945312 L 162.589844 155.058594 C 166.433594 155.097656 170.273438 154.25 173.914062 152.9375 C 197.773438 143.773438 217.363281 116.726562 223.984375 92.648438 C 218.953125 106.800781 211.234375 120.652344 200.972656 131.953125 C 193.324219 140.414062 184.351562 148.066406 173.699219 152.410156 Z M 173.699219 152.410156 " fill-opacity="1" fill-rule="nonzero"/><path fill="#21991a" d="M 173.574219 129.238281 C 173.574219 129.238281 173.675781 129.277344 173.675781 129.277344 C 173.675781 129.277344 174.558594 127.320312 174.558594 127.320312 C 176.265625 123.429688 178.285156 119.617188 180.460938 115.96875 C 189.585938 100.828125 202.3125 87.558594 217.980469 79.160156 C 197.445312 88.101562 181.15625 108.242188 173.574219 129.238281 Z M 173.574219 129.238281 " fill-opacity="1" fill-rule="nonzero"/><path fill="#21991a" d="M 190.925781 113.707031 C 190.925781 113.707031 188.195312 115.90625 188.195312 115.90625 C 186.640625 117.207031 184.238281 118.898438 182.582031 120.121094 C 182.230469 120.386719 181.523438 120.878906 181.144531 121.121094 C 180.167969 121.761719 177.757812 123.355469 176.746094 124.023438 C 176.746094 124.023438 176.808594 124.113281 176.808594 124.113281 C 177.84375 123.554688 178.867188 122.976562 179.878906 122.382812 C 180.410156 122.066406 181.636719 121.371094 182.179688 121.054688 C 185.3125 119.050781 188.636719 116.714844 191.554688 114.425781 C 192.441406 113.683594 194.753906 111.738281 195.601562 110.992188 C 196.839844 109.820312 198.242188 108.53125 199.453125 107.34375 C 203.183594 103.570312 206.632812 99.492188 209.640625 95.109375 C 211.941406 91.699219 214.113281 88.140625 215.617188 84.300781 C 210.375 93.820312 203.042969 102.734375 194.894531 110.210938 C 194.035156 110.96875 191.808594 112.925781 190.925781 113.707031 Z M 190.925781 113.707031 " fill-opacity="1" fill-rule="nonzero"/><path fill="#21991a" d="M 153.972656 187.511719 L 153.984375 187.625 C 155.957031 187.535156 157.941406 187.445312 159.910156 187.296875 C 163.816406 186.941406 167.859375 186.488281 171.703125 185.71875 C 196.445312 181.261719 222.140625 166.851562 234.460938 144.316406 C 217.476562 171.234375 185.136719 185.402344 153.972656 187.511719 Z M 153.972656 187.511719 " fill-opacity="1" fill-rule="nonzero"/><path fill="#21991a" d="M 202.691406 168.152344 C 189.042969 177.003906 172.863281 183.695312 156.308594 181.941406 C 187.929688 186.867188 221.683594 159.1875 238.59375 134.414062 C 238.59375 134.414062 238.503906 134.351562 238.503906 134.351562 C 228.546875 147.496094 216.566406 159.214844 202.691406 168.152344 Z M 202.691406 168.152344 " fill-opacity="1" fill-rule="nonzero"/><path fill="#21991a" d="M 153.894531 186.273438 C 153.894531 186.273438 153.960938 186.183594 153.960938 186.183594 C 152.933594 185.375 151.910156 184.566406 150.875 183.796875 C 150.875 183.796875 147.945312 181.246094 147.945312 181.246094 C 133.851562 168.609375 128.875 151.070312 127.507812 132.761719 C 127.191406 154.136719 134.925781 174.605469 153.894531 186.273438 Z M 153.894531 186.273438 " fill-opacity="1" fill-rule="nonzero"/><path fill="#21991a" d="M 147.929688 199.503906 C 138.769531 189.808594 132.691406 177.597656 128.519531 165.023438 C 132.726562 180.640625 141.511719 196.046875 154.605469 205.871094 C 154.605469 205.871094 152.289062 203.824219 152.289062 203.824219 C 151.179688 202.800781 148.980469 200.617188 147.929688 199.503906 Z M 147.929688 199.503906 " fill-opacity="1" fill-rule="nonzero"/><path fill="#21991a" d="M 155.5625 143.671875 C 156.601562 146.890625 158.242188 149.933594 160.46875 152.496094 C 160.46875 152.496094 160.542969 152.421875 160.542969 152.421875 C 158.496094 149.746094 156.992188 146.726562 156.109375 143.480469 C 150.585938 122.609375 164.980469 94.882812 178.085938 79.097656 C 163.675781 94.1875 149.308594 122.382812 155.5625 143.671875 Z M 155.5625 143.671875 " fill-opacity="1" fill-rule="nonzero"/><path fill="#21991a" d="M 150.710938 153.230469 C 153 155.742188 155.601562 157.964844 158.382812 159.933594 C 158.382812 159.933594 158.445312 159.84375 158.445312 159.84375 C 153.1875 155.667969 148.511719 150.589844 145.679688 144.480469 C 137.011719 125.464844 148.019531 104.328125 157.675781 87.835938 C 157.675781 87.835938 157.585938 87.773438 157.585938 87.773438 C 153.808594 93.417969 150.320312 99.289062 147.5 105.460938 C 140.070312 121.183594 137.910156 139.617188 150.710938 153.230469 Z M 150.710938 153.230469 " fill-opacity="1" fill-rule="nonzero"/><path fill="#21991a" d="M 155.5 175.289062 C 153.945312 173.773438 151.976562 171.96875 150.570312 170.3125 C 143.242188 162.382812 138.605469 152.207031 136.609375 141.652344 C 136.441406 140.613281 136.113281 138.683594 135.964844 137.660156 C 135.925781 137.257812 135.722656 135.234375 135.683594 134.78125 C 135.253906 131.03125 135.269531 126.992188 135.269531 123.203125 C 135.457031 117.785156 136 112.304688 136.671875 106.941406 C 134.066406 118.820312 133.421875 131.992188 136.039062 144.136719 C 138.679688 156.246094 145.617188 168.015625 155.5 175.289062 Z M 155.5 175.289062 " fill-opacity="1" fill-rule="nonzero"/><path fill="#21991a" d="M 152.808594 147.484375 C 154.667969 150.4375 157.054688 153.050781 159.808594 155.199219 L 159.875 155.109375 C 157.269531 152.800781 154.996094 150.160156 153.300781 147.179688 C 148.109375 138.203125 148.058594 127.191406 150.546875 117.355469 C 153.808594 103.871094 161.199219 91.800781 169.378906 80.738281 C 154.84375 97.417969 140.03125 125.980469 152.808594 147.484375 Z M 152.808594 147.484375 " fill-opacity="1" fill-rule="nonzero"/><path fill="#21991a" d="M 157.117188 167.195312 C 157.117188 167.195312 157.15625 167.09375 157.15625 167.09375 C 151.660156 164.277344 147.816406 159.226562 145.101562 153.824219 C 137.175781 137.359375 137.328125 117.304688 144.972656 100.765625 C 134.824219 118.34375 135.773438 146.144531 149.648438 161.789062 C 151.746094 164.0625 154.289062 165.945312 157.117188 167.195312 Z M 157.117188 167.195312 " fill-opacity="1" fill-rule="nonzero"/><path fill="#21991a" d="M 152.46875 196.816406 C 151.078125 195.492188 149.320312 194.164062 148.019531 192.613281 C 143.847656 188.152344 140.613281 182.902344 137.847656 177.496094 C 134.078125 170.261719 131.121094 162.625 128.179688 155.023438 C 132.957031 169.390625 139.832031 187.5625 152.46875 196.816406 Z M 152.46875 196.816406 " fill-opacity="1" fill-rule="nonzero"/><path fill="#21991a" d="M 178.210938 188.039062 C 178.210938 188.039062 178.199219 187.988281 178.199219 187.988281 C 177.707031 188.167969 177.277344 188.417969 176.820312 188.632812 C 175.46875 189.304688 174.078125 189.910156 172.648438 190.441406 C 166.964844 192.535156 160.796875 193.292969 154.792969 192.433594 C 154.792969 192.433594 154.78125 192.484375 154.78125 192.484375 C 155.777344 192.6875 156.777344 192.902344 157.789062 193.015625 C 164.929688 193.835938 172.195312 191.839844 178.210938 188.039062 Z M 178.210938 188.039062 " fill-opacity="1" fill-rule="nonzero"/><path fill="#21991a" d="M 152.707031 203.445312 C 157.851562 202.382812 162.730469 200.339844 167.445312 198.089844 C 172.105469 195.730469 176.683594 193.15625 180.914062 190.074219 C 172.054688 195.261719 162.703125 200.503906 152.683594 203.394531 C 152.695312 203.394531 152.707031 203.445312 152.707031 203.445312 Z M 152.707031 203.445312 " fill-opacity="1" fill-rule="nonzero"/><g clip-path="url(#b86bd91d0b)"><path fill="#21991a" d="M 109.703125 345.28125 C 168.71875 276.605469 139.324219 172.03125 183.695312 114.679688 C 122.957031 184.605469 168.921875 264.695312 104.914062 341.71875 Z M 109.703125 345.28125 " fill-opacity="1" fill-rule="nonzero"/></g></svg>